<?xml version="1.0" encoding="utf-8"?><!DOCTYPE svg PUBLIC "-//W3C//DTD SVG 1.1//EN" "http://www.w3.org/Graphics/SVG/1.1/DTD/svg11.dtd"><svg viewBox="0 0 800 800" xmlns="http://www.w3.org/2000/svg" xmlns:xlink="http://www.w3.org/1999/xlink"><style>:root>svg{display:none}:root>svg:target{display:block}</style><svg viewBox="0 0 32 32" fill="none" id="git" xmlns="http://www.w3.org/2000/svg"><path d="M2.585 17.413a1.999 1.999 0 0 1 0-2.826L14.587 2.585c.78-.78 2.046-.78 2.826 0l12.002 12.002c.78.78.78 2.046 0 2.826L17.413 29.415c-.78.78-2.046.78-2.826 0L2.585 17.413Z" fill="#EE513B"/><path d="m12.149 5.062-1.215 1.215 3.139 3.139A2.126 2.126 0 0 0 15.25 12.3v7.679a2.126 2.126 0 1 0 1.718.097v-7.765l3 3a2.125 2.125 0 1 0 1.283-1.147l-3.221-3.223a2.125 2.125 0 0 0-2.66-2.66l-3.221-3.22Z" fill="#fff"/></svg><svg fill="inherit" viewBox="0 0 24 24" id="gulp" xmlns="http://www.w3.org/2000/svg"><path d="M5.936 4.694c-.336 0-.675.078-1.013.222-.34.145-.676.346-1.007.605a7.133 7.133 0 0 0-.97.917c-.313.354-.61.745-.887 1.164-.276.42-.533.867-.78 1.32h-.001v.001c-.239.473-.448.96-.63 1.455-.18.496-.324.993-.438 1.497-.11.5-.178.987-.2 1.465a.515.515 0 0 0-.01.091v.095c0 .261.038.53.075.776v.002l.001.002c.068.262.175.504.31.717a1.7 1.7 0 0 0 .537.518c.217.138.474.207.776.207.263 0 .536-.06.817-.185.279-.125.557-.288.834-.479.268-.192.536-.412.794-.66.207-.192.396-.392.583-.59l-.196.608c-.085.293-.18.576-.257.853-.085.274-.152.52-.209.738-.057.216-.096.362-.096.456v.215c0 .241.025.411.104.518a.398.398 0 0 0 .333.152.435.435 0 0 0 .265-.095c.081-.06.15-.137.219-.224v-.002l.002-.001c.057-.087.115-.18.164-.278.05-.101.078-.19.107-.269v-.001l.067-.24.143-.495.19-.662c.076-.247.142-.495.227-.747l.225-.75c.072-.244.14-.465.203-.661.063-.2.116-.362.16-.493.02-.065.04-.116.054-.154l.014-.032.04.018.018-.048c.076-.218.151-.427.227-.626.076-.2.152-.4.21-.597a3.762 3.762 0 0 0 .22-1.29.637.637 0 0 0-.05-.255.44.44 0 0 0-.124-.18.499.499 0 0 0-.174-.1.622.622 0 0 0-.19-.03.655.655 0 0 0-.378.127c-.129.086-.225.229-.297.422v.001l-.55 1.764a3.91 3.91 0 0 1-.317.513v.001a9.407 9.407 0 0 1-1.71 1.832 3.53 3.53 0 0 1-.6.404 1.063 1.063 0 0 1-.5.146.48.48 0 0 1-.312-.103.637.637 0 0 1-.204-.275 1.582 1.582 0 0 1-.102-.387 3.182 3.182 0 0 1-.028-.422c0-.413.066-.874.198-1.394.132-.52.312-1.04.539-1.579.227-.54.492-1.06.786-1.571.293-.511.605-.965.926-1.362.32-.396.64-.706.97-.95.327-.244.62-.362.902-.362a.88.88 0 0 1 .497.145c.152.098.29.263.42.496v-.001c.134.259.269.46.385.606.12.15.259.227.408.227a.51.51 0 0 0 .416-.208c.115-.138.17-.327.17-.556 0-.096-.01-.2-.03-.307a.87.87 0 0 0-.14-.334c-.314-.47-.651-.807-1.01-1.024H7.06a2.216 2.216 0 0 0-1.125-.317zm10.961.855a.802.802 0 0 0-.41.12h-.001l-.001.001a.85.85 0 0 0-.318.43l-1.889 4.758-.417 1.045c-.153.38-.295.76-.447 1.148a4.792 4.792 0 0 0-.176.551 4.995 4.995 0 0 1-.257.215c-.207.16-.403.281-.589.365h-.002a1.045 1.045 0 0 1-.463.129c-.082 0-.137-.02-.172-.053-.035-.033-.056-.084-.056-.166 0-.185.028-.39.084-.615.057-.22.132-.451.217-.683a8.73 8.73 0 0 1 .274-.69l.276-.644c.086-.2.153-.382.21-.534a1.15 1.15 0 0 0 .089-.377.71.71 0 0 0-.143-.437.474.474 0 0 0-.39-.19.466.466 0 0 0-.378.179 1.514 1.514 0 0 0-.254.42 3.917 3.917 0 0 0-.201.537c-.056.19-.131.368-.207.535-.113.25-.246.524-.416.826a6.64 6.64 0 0 1-.565.849c-.207.26-.432.479-.675.654a1.26 1.26 0 0 1-.75.257c-.083 0-.138-.03-.167-.088a.472.472 0 0 1-.052-.225c.01-.204.046-.419.112-.643.066-.222.141-.443.226-.66.085-.21.18-.424.283-.625.105-.201.2-.391.294-.56v-.001l.248-.47a2.26 2.26 0 0 0 .135-.33l.001-.002v-.001c.01-.04.021-.09.021-.145a.419.419 0 0 0-.054-.214v-.001l-.001-.001a.526.526 0 0 0-.335-.238.65.65 0 0 0-.588.103c-.132.091-.231.232-.319.426a23.085 23.085 0 0 0-.79 1.817c-.19.505-.323.914-.418 1.229a4.666 4.666 0 0 0-.163.7v.001l-.02.231v.002c0 .214.029.4.09.55v.002c.068.147.148.266.249.357a.893.893 0 0 0 .36.191c.132.04.27.059.41.059.311 0 .598-.058.861-.155s.501-.232.714-.396a3.4 3.4 0 0 0 .563-.548c.12-.14.21-.285.3-.427-.04.22-.078.437-.078.614 0 .33.063.57.202.717a.695.695 0 0 0 .523.214c.208 0 .439-.057.694-.17.253-.113.51-.262.77-.446.065-.045.127-.093.19-.141l.005.036a1 1 0 0 0 .15.35h.001l.001.002c.08.099.17.18.291.24a.992.992 0 0 0 .45.091 2 2 0 0 0 .787-.175h.002c.268-.125.537-.279.805-.48a8.85 8.85 0 0 0 .812-.697l.01-.009c-.046.106-.09.212-.138.319-.219.484-.442.972-.674 1.471-.233.5-.466.994-.684 1.488l-.001.003-.001.002a3.93 3.93 0 0 1-.104.278c-.036.092-.085.188-.115.298v.001c-.037.1-.075.198-.095.306-.03.11-.04.217-.04.315 0 .208.059.367.172.447a.67.67 0 0 0 .398.115c.122 0 .234-.03.335-.08v-.001h.001a.95.95 0 0 0 .263-.22c.076-.09.14-.192.198-.308a3.91 3.91 0 0 0 .154-.365l.002-.004v-.004c.008-.037.037-.121.084-.244l.162-.436.19-.512.199-.522.17-.435c.048-.124.077-.21.095-.255v-.001c.019-.038.048-.095.085-.189l.133-.313.161-.37.172-.38.142-.342.103-.226.001-.001c.085-.17.188-.358.302-.566v-.001c.123-.207.255-.405.396-.612v-.001c.152-.2.302-.397.463-.585.161-.187.33-.347.5-.498.173-.14.346-.262.521-.345a1.14 1.14 0 0 1 .499-.128c.086 0 .143.018.178.039a.135.135 0 0 1 .042.103c0 .08-.043.207-.144.353v.001c-.104.16-.226.33-.377.519-.162.19-.323.389-.503.597-.18.21-.352.419-.514.628a6.18 6.18 0 0 0-.412.603v.001a1.518 1.518 0 0 0-.205.53v.007a.193.193 0 0 1-.004.022c-.003.01-.006.014-.006.035v.057c0 .257.092.465.274.606.183.152.441.22.76.22.349 0 .67-.068.97-.204.298-.134.605-.316.92-.556h.001c.315-.236.64-.517.991-.843.341-.325.739-.685 1.184-1.08a.847.847 0 0 0 .262-.352c.059-.138.089-.275.089-.41a.635.635 0 0 0-.082-.324.278.278 0 0 0-.248-.148.369.369 0 0 0-.164.043c-.053.026-.109.06-.17.101-.104.033.017.063.03.108-.538.481-1.004.887-1.373 1.206-.38.332-.699.588-.946.788a5.893 5.893 0 0 1-.574.41c-.132.079-.233.117-.289.117-.078 0-.132-.02-.156-.043a.142.142 0 0 1-.043-.108.22.22 0 0 1 .035-.075 1.55 1.55 0 0 1 .117-.152l.398-.465c.162-.181.324-.381.504-.6.18-.22.35-.447.502-.682.16-.23.285-.467.39-.7.101-.233.156-.455.156-.666a.837.837 0 0 0-.106-.426.92.92 0 0 0-.277-.3c-.11-.08-.238-.14-.375-.181h-.001a1.557 1.557 0 0 0-1.043.073 3.064 3.064 0 0 0-.598.332 5.677 5.677 0 0 0-.565.45 9.89 9.89 0 0 0-.38.378l.036-.176c.015-.073.025-.141.034-.207v-.001c.01-.068.013-.116.013-.149a.529.529 0 0 0-.126-.373v-.001h-.002c-.087-.09-.222-.129-.4-.129-.122 0-.24.07-.34.19a2.18 2.18 0 0 0-.263.418 4.225 4.225 0 0 0-.202.48l-.133.378v.001c-.046.159-.097.321-.15.485a.33.33 0 0 0-.041.014.33.33 0 0 0-.136.089l.003-.003c-.118.114-.251.247-.399.389-.147.142-.303.284-.464.426-.162.133-.326.275-.49.407-.162.13-.32.245-.471.345-.15.101-.29.18-.419.241a.776.776 0 0 1-.309.088c-.06 0-.085-.014-.1-.042h-.001a.311.311 0 0 1-.032-.155c0-.113.02-.243.064-.39.042-.146.086-.274.13-.385l.028-.03.374-.952c.142-.365.294-.746.465-1.152l.513-1.254c.17-.427.342-.84.503-1.234l.475-1.102c.142-.336.266-.619.37-.848l-.001.002c.059-.117.097-.227.135-.32v-.002a.934.934 0 0 0 .055-.297c0-.196-.061-.35-.18-.443a.6.6 0 0 0-.384-.133Z"/></svg><svg viewBox="0 0 512 512" xml:space="preserve" id="html" xmlns="http://www.w3.org/2000/svg"><path d="M108.669.501h23.032v22.756h21.069V.501h23.034V69.41h-23.032V46.334h-21.069V69.41h-23.032V.501h-.002zm97.422 22.852h-20.275V.501h63.594v22.852h-20.285V69.41h-23.032V23.353h-.002zM259.502.501h24.02l14.771 24.213L313.052.501h24.023V69.41h-22.938V35.256l-15.845 24.5h-.395l-15.856-24.5V69.41h-22.539V.501zm89.038 0h23.038v46.133h32.391V69.41H348.54V.501zM74.987 100.926l32.946 369.533 147.844 41.04L404.031 470.4l32.981-369.475H74.987zm293.302 87.694-2.063 22.977-.906 10.188H191.886l4.142 46.407h165.166l-1.106 12.172-10.65 119.32-.682 7.652L256 433.045v.008l-.208.059-92.839-25.774-6.351-71.161h45.497l3.227 36.146 50.474 13.632.042-.013v-.004l50.551-13.64 5.257-58.781H154.578L143.439 188.62l-1.085-12.157H369.374l-1.085 12.157z"/></svg><svg viewBox="0 0 512 512" xml:space="preserve" id="js" xmlns="http://www.w3.org/2000/svg"><path d="M218.195 257.521c0 64.719 4.624 119.1-27.309 151.283-17.961 18.105-46.301 28.772-81.17 28.772-57.192 0-88.947-27.862-109.215-66.416 19.512-12.459 39.452-24.502 59.775-36.154 8.292 23.188 36.291 49.258 67.888 33.21 20.027-10.18 17.715-41.04 17.715-74.537V81.151c-.063-1.044-.125-2.087.732-2.214h71.585l-.001 178.584zm181.532-42.059c-18.247-7.814-40.928-17.058-46.488-33.952-6.233-18.934 4.396-34.533 16.231-39.841 26.023-11.688 57.038 7.556 63.463 27.301 19.583-11.657 39.103-23.384 56.826-36.896-20.826-34.584-51.354-59.342-107.003-57.561-30.64.979-53.657 10.652-70.841 25.088-16.771 14.085-29.721 33.854-31.737 61.989-6.025 84.212 56.988 105.708 110.695 129.137 16.93 7.385 35.751 14.842 43.54 29.517 16.061 30.282-12.389 50.26-36.898 52.397-39.336 3.427-65.858-19.587-81.175-43.54-19.133 11.86-39.938 22.045-58.298 34.683 25.537 44.908 67.409 73.98 132.831 73.793 66.74-.188 116.219-32.366 120.281-92.977 5.523-82.384-56.198-105.495-111.427-129.138z"/></svg><svg aria-label="npm" viewBox="0 0 512 512" id="npm" xmlns="http://www.w3.org/2000/svg"><rect width="512" height="512" rx="15%" fill="#fff"/><path fill="none" stroke="#cb3837" stroke-width="22" d="M234 311h213V199H65v112h113V210m-12 123h90M133 232v68m112-68v45m45-67v90m67-68v68m45-68v68"/></svg><svg viewBox="0 0 64 64" xml:space="preserve" style="fill-rule:evenodd;clip-rule:evenodd;stroke-linejoin:round;stroke-miterlimit:2" id="react" xmlns="http://www.w3.org/2000/svg"><path style="fill:none" d="M-1088-64H192v800h-1280z"/><circle cx="32.001" cy="31.955" r="4.478" style="fill:#00d8ff"/><path d="M32.33 22.516c7.635.052 15.965.609 21.683 5.708.168.15.33.306.488.467 1.349 1.375 2.054 3.595.965 5.422-2.234 3.751-7.23 5.387-12.067 6.394-7.234 1.506-14.798 1.518-22.029.192-4.161-.764-8.416-2.103-11.373-4.904-1.151-1.09-2.135-2.524-1.981-4.12.25-2.582 2.727-4.239 4.812-5.361 5.791-3.116 12.847-3.813 19.502-3.798Zm-.554 1.173c-7.224.049-15.043.51-20.621 5.129-.195.161-.383.33-.564.507-.117.114-.23.233-.339.355-.979 1.1-1.316 2.867-.392 4.188.93 1.329 2.342 2.288 3.796 3.07 5.438 2.924 11.864 3.443 18.129 3.465 6.343.023 12.884-.555 18.487-3.452 2.232-1.155 4.744-2.851 4.655-5.035-.082-2.004-2.036-3.242-3.499-4.126-.396-.239-.803-.46-1.216-.668-5.562-2.787-12.08-3.447-18.436-3.433Z" style="fill:#00d8ff"/><path d="M42.115 10.703c2.793.071 4.24 3.429 4.431 5.909.038.493.052.988.046 1.483a21.007 21.007 0 0 1-.082 1.606c-.589 6.612-3.608 12.909-7.163 18.724-3.477 5.688-7.717 11.36-13.485 13.996-1.907.872-4.175 1.41-5.863.437-2.314-1.333-2.567-4.451-2.524-6.816.011-.581.049-1.162.109-1.741.889-8.56 5.228-16.669 10.658-23.655 3.168-4.076 6.937-8.119 11.632-9.583.739-.231 1.326-.371 2.241-.36Zm-.134 1.172c-3.279.052-6.223 2.482-8.83 5.007-6.854 6.637-11.905 15.464-13.937 24.721a26.54 26.54 0 0 0-.386 2.166 20.94 20.94 0 0 0-.159 1.697 16.62 16.62 0 0 0-.017 1.358c.01.354.033.708.072 1.06.029.269.068.537.117.803.037.197.08.393.13.588.041.158.087.315.139.471.409 1.233 1.463 2.411 2.878 2.45 3.301.09 6.409-2.317 9.096-4.933 4.717-4.591 8.232-10.36 10.978-16.424 2.216-4.896 4.243-10.218 3.111-15.607a7.36 7.36 0 0 0-.308-1.089c-.44-1.199-1.475-2.271-2.884-2.268Z" style="fill:#00d8ff"/><path d="M22.109 10.747c3.564.069 6.765 2.488 9.607 5.197 5.186 4.943 9.011 11.231 11.913 17.849 2.248 5.127 4.316 10.882 2.478 16.292-.579 1.705-2.044 3.265-3.997 3.305-3.581.072-6.9-2.532-9.78-5.335-7.225-7.034-12.589-16.32-14.427-26.168a25.392 25.392 0 0 1-.309-2.127 20.927 20.927 0 0 1-.106-1.752c-.008-.472.002-.944.035-1.414.022-.314.054-.626.097-.937a10.741 10.741 0 0 1 .304-1.439c.539-1.843 1.941-3.485 4.185-3.471Zm-.135 1.173c-2.087.046-3.042 2.507-3.234 4.234-.039.354-.063.711-.074 1.068-.014.456-.008.913.015 1.369.328 6.599 3.278 12.979 6.838 18.821 3.352 5.5 7.4 10.978 12.968 13.794 1.608.813 3.562 1.452 4.951.684 1.742-.964 1.956-3.261 2.049-4.973.025-.466.028-.934.013-1.401a20.148 20.148 0 0 0-.133-1.753c-.642-5.437-3.05-10.582-5.816-15.444-3.442-6.048-7.659-12.076-13.627-15.225-1.236-.652-2.574-1.185-3.95-1.174Z" style="fill:#00d8ff"/></svg><svg viewBox="0 0 32 32" id="scss" xmlns="http://www.w3.org/2000/svg"><path d="M16.171 18.7c-.481.221-1.008.509-2.063 1.088-.4.225-.818.45-1.207.662-.027-.027-.055-.061-.082-.089-2.087-2.23-5.947-3.805-5.783-6.8.061-1.091.436-3.955 7.413-7.433 5.742-2.83 10.311-2.046 11.1-.307 1.134 2.479-2.449 7.092-8.379 7.761a4.469 4.469 0 0 1-3.751-.948c-.314-.341-.361-.361-.477-.293-.191.1-.068.409 0 .586a3.5 3.5 0 0 0 2.141 1.684 11.4 11.4 0 0 0 6.956-.689c3.594-1.391 6.4-5.258 5.578-8.5-.825-3.287-6.281-4.371-11.443-2.537a26 26 0 0 0-8.79 5.047c-2.844 2.66-3.294 4.972-3.11 5.94.662 3.437 5.4 5.674 7.3 7.331-.1.055-.184.1-.259.143-.948.471-4.562 2.36-5.463 4.358-1.023 2.264.164 3.887.948 4.105a5.832 5.832 0 0 0 6.281-2.544 6.3 6.3 0 0 0 .559-5.8 5.03 5.03 0 0 1 .716-.477c.484-.286.945-.568 1.354-.786a10.475 10.475 0 0 1 4.475-.989c3.246.382 3.887 2.407 3.764 3.26a2.157 2.157 0 0 1-1.03 1.459c-.225.143-.3.191-.28.293.027.15.136.143.327.116a2.535 2.535 0 0 0 1.766-2.257c.1-2-1.807-4.194-5.183-4.174a7.753 7.753 0 0 0-2.946.587q-.225.093-.437.2Zm-4.825 7.839c-1.078 1.173-2.578 1.616-3.226 1.241-.7-.4-.423-2.135.9-3.376a17.18 17.18 0 0 1 2.53-1.889c.157-.1.389-.232.668-.4l.075-.041.164-.1a4.658 4.658 0 0 1-1.111 4.565Z" style="fill:#cd6799"/></svg><svg viewBox="-17 0 290 290" preserveAspectRatio="xMidYMid" id="webpack" xmlns="http://www.w3.org/2000/svg"><path fill="#FFF" d="m128 .048 128 72.405V217.31l-128 72.405L0 217.31V72.453z"/><path d="m233.153 212.287-100.902 57.14V224.99l62.889-34.632 38.013 21.929Zm6.907-6.231V86.654l-36.902 21.3v76.8l36.902 21.302Zm-217.6 6.23 100.903 57.094v-44.438l-62.889-34.584-38.014 21.929Zm-6.907-6.23V86.654l36.903 21.3v76.8l-36.903 21.302Zm4.3-127.13 103.51-58.543v42.99L57.045 99.84l-.532.29-36.66-21.205Zm215.86 0L132.251 20.382v42.99l66.27 36.515.531.29 36.661-21.253Z" fill="#8ED6FB"/><path d="m123.363 214.847-62.02-34.15v-67.574l62.02 35.792v65.932Zm8.888 0 62.02-34.101v-67.623l-62.02 35.792v65.932ZM65.497 105.298l62.31-34.246 62.26 34.246-62.26 35.937-62.31-35.937Z" fill="#1C78C0"/></svg></svg>